<?xml version="1.0" encoding="UTF-8" standalone="no"?>
<!-- Created with Inkscape (http://www.inkscape.org/) -->

<svg
   version="1.1"
   id="svg1"
   width="1024"
   height="1536"
   viewBox="0 0 1024 1536"
   sodipodi:docname="ChatGPT Image 24 dic 2025, 12_44_44 p.m..svg"
   inkscape:version="1.4.2 (f4327f4, 2025-05-13)"
   xmlns:inkscape="http://www.inkscape.org/namespaces/inkscape"
   xmlns:sodipodi="http://sodipodi.sourceforge.net/DTD/sodipodi-0.dtd"
   xmlns="http://www.w3.org/2000/svg"
   xmlns:svg="http://www.w3.org/2000/svg">
  <defs
     id="defs1" />
  <sodipodi:namedview
     id="namedview1"
     pagecolor="#ffffff"
     bordercolor="#000000"
     borderopacity="0.25"
     inkscape:showpageshadow="2"
     inkscape:pageopacity="0.0"
     inkscape:pagecheckerboard="0"
     inkscape:deskcolor="#d1d1d1"
     inkscape:zoom="0.52539062"
     inkscape:cx="574.81041"
     inkscape:cy="768"
     inkscape:window-width="1920"
     inkscape:window-height="1009"
     inkscape:window-x="-8"
     inkscape:window-y="-8"
     inkscape:window-maximized="1"
     inkscape:current-layer="g1" />
  <g
     inkscape:groupmode="layer"
     inkscape:label="Image"
     id="g1">
    <path
       style="fill:#ffffff;fill-opacity:1"
       d="m 486.82807,1108.8066 c -2.76617,-10.87 -10.12897,-27.9249 -16.90686,-39.1624 -11.45369,-18.9899 -26.1314,-37.0166 -52.03963,-63.9131 -9.60284,-9.9692 -21.46915,-22.7942 -26.36957,-28.5 -4.90042,-5.7059 -9.18618,-10.5993 -9.52392,-10.8743 -0.72464,-0.59 -14.46798,-17.9072 -21.03104,-26.5 -2.5205,-3.3 -9.9723,-14.1 -16.55956,-24 -28.01778,-42.1079 -47.67029,-79.08535 -67.9727,-127.89497 -5.23778,-12.59229 -11.31365,-28.34229 -13.50195,-35 -3.89707,-11.85656 -9.03067,-31.73381 -8.36711,-32.39737 0.18443,-0.18443 2.69307,4.08092 5.57475,9.47855 15.63029,29.27687 28.25372,49.70366 38.50897,62.31388 5.69256,6.99977 18.17774,19.35658 25.45718,25.19544 6.01806,4.8271 19.47263,13.00696 26.81206,16.3007 l 5.94572,2.66829 0.65741,6.67167 c 0.96823,9.82591 3.08622,19.06551 6.1449,26.80671 2.83613,7.1779 10.30567,18.6318 13.41817,20.5756 1.46678,0.916 1.59794,1.4873 0.67922,2.9584 -0.62621,1.0027 -1.59282,1.8204 -2.14802,1.817 -0.5552,0 -2.31391,-0.6865 -3.90824,-1.5179 -1.59433,-0.8315 -3.11778,-1.2927 -3.38546,-1.0251 -0.73657,0.7366 2.54451,5.355 4.53424,6.3823 0.9625,0.497 3.34528,1.1909 5.29505,1.5421 3.11041,0.5602 3.8862,1.3426 6.32753,6.3816 3.21744,6.6409 12.70935,21.4945 13.33552,20.8684 0.23307,-0.2331 -1.5662,-5.3066 -3.99838,-11.2745 -2.43218,-5.9679 -5.44845,-13.9631 -6.70282,-17.7671 -2.26821,-6.8786 -2.27138,-6.9687 -0.58116,-16.5 0.93473,-5.271 2.02969,-12.2837 2.43326,-15.5837 l 0.73376,-6 1.34978,5.5 c 2.00476,8.1689 12.46709,39.4766 18.5405,55.4811 9.25127,24.3787 21.33629,50.6618 34.72383,75.5189 2.51786,4.675 7.60445,14.125 11.30353,21 11.57245,21.5082 21.55055,42.9755 25.54672,54.9623 3.99488,11.9829 8.29476,33.7586 7.75396,39.2681 -0.25829,2.6313 -0.61119,1.9898 -2.07964,-3.7806 z M 344.68962,868.8056 c -1.28857,-3.8218 -2.89001,-10.2126 -3.55876,-14.2016 -0.73438,-4.3807 -1.61635,-7.0054 -2.2271,-6.628 -3.42222,2.1151 -4.9836,14.63 -2.40564,19.2819 1.16775,2.1072 9.69977,9.331 10.30546,8.7253 0.12589,-0.1259 -0.8254,-3.3558 -2.11396,-7.1776 z m 186.47804,242.4761 c -0.11404,-5.7403 3.72927,-25.5816 7.05559,-36.4249 3.98913,-13.0038 12.10313,-30.6744 24.34457,-53.0172 22.00466,-40.1625 38.52816,-74.8743 48.99983,-102.9365 3.85231,-10.3235 12.83498,-37.4828 16.71769,-50.5463 l 2.22915,-7.5 1.15429,9 c 0.63486,4.95 1.69169,11.5584 2.34853,14.6853 0.65693,3.1274 0.88128,7.4016 0.49864,9.5 -1.06544,5.843 -6.248,20.0175 -10.16185,27.793 -2.04642,4.0656 -2.82893,6.411 -1.87473,5.6191 2.38591,-1.9802 10.08513,-13.8196 13.61987,-20.9439 2.88194,-5.8086 3.25196,-6.1535 6.60214,-6.1535 2.58936,0 4.33956,-0.7904 6.47218,-2.923 1.60769,-1.6077 2.92307,-3.4077 2.92307,-4 0,-1.3904 -0.21837,-1.3654 -3.63569,0.4169 -3.5734,1.8636 -4.80729,1.8822 -6.29073,0.095 -0.94059,-1.1334 -0.2691,-2.3397 3.40912,-6.1243 8.45635,-8.7009 15.50248,-27.1236 17.06142,-44.6084 l 0.59238,-6.64406 6.18175,-2.76301 c 13.71699,-6.13098 32.32372,-19.78122 43.708,-32.06499 7.2477,-7.82035 17.12763,-21.0595 24.16698,-32.38387 6.61037,-10.63422 19.00591,-32.52272 24.63423,-43.5 1.69199,-3.3 3.09799,-5.24042 3.12444,-4.31205 0.15773,5.53523 -7.46942,31.844 -14.40887,49.70134 -16.04238,41.28193 -32.87688,75.84544 -55.33528,113.61064 -18.30472,30.7806 -36.49298,56.5429 -57.93092,82.0549 -13.77278,16.3901 -18.26526,21.3337 -36.30013,39.9451 -23.54688,24.2997 -36.21735,39.3036 -46.45434,55.0094 -9.07987,13.9306 -17.28179,31.6254 -21.48572,46.3532 -1.64955,5.779 -1.90377,6.175 -1.96561,3.0623 z M 678.61292,872.2084 c 4.63334,-4.0681 6.48371,-7.7499 6.48371,-12.9008 0,-4.0381 -2.49583,-10.9508 -3.95379,-10.9508 -0.39924,0 -1.30755,3.2548 -2.01846,7.2327 -0.7109,3.978 -2.35411,10.053 -3.65156,13.5 -1.29745,3.4471 -1.92853,6.2673 -1.40239,6.2673 0.52614,0 2.57026,-1.4168 4.54249,-3.1484 z M 489.61034,854.1031 c -14.48405,-18.14391 -29.07247,-35.03183 -35.68029,-41.30433 -12.20388,-11.58457 -53.00036,-43.44188 -55.63169,-43.44188 -2.43379,0 -15.04612,7.50256 -18.97981,11.29031 -4.39706,4.23393 -10.88316,14.33221 -13.41177,20.88094 -1.30035,3.36773 -2.24617,8.73282 -2.5701,14.57875 -0.28191,5.0875 -0.74786,9.25 -1.03544,9.25 -1.42728,0 -13.12166,-9.72961 -25.20461,-20.96999 -7.425,-6.90724 -16.63951,-15.39852 -20.4767,-18.86952 l -6.97671,-6.31091 -0.0862,-17.67479 c -0.0683,-14.0067 -0.53618,-19.84046 -2.2546,-28.11015 -1.19263,-5.73945 -2.04713,-10.55666 -1.89889,-10.7049 0.14825,-0.14825 2.95234,4.0759 6.23131,9.387 3.27897,5.3111 7.81505,11.5908 10.08018,13.9549 3.2805,3.42383 4.80643,4.29389 7.5,4.2764 1.85987,-0.0121 5.18158,-0.84078 7.38158,-1.84155 5.77118,-2.62529 14.6143,-11.10628 18.03568,-17.29713 2.47501,-4.47843 2.9519,-6.46806 2.95757,-12.33936 0.006,-6.11299 -0.4633,-7.91869 -3.70279,-14.25 -2.04025,-3.9875 -3.51615,-7.25 -3.27979,-7.25 0.23636,0 3.84341,2.3625 8.01565,5.25 4.17224,2.8875 8.72487,5.98758 10.11696,6.88906 1.51988,0.98423 3.8144,4.59113 5.74328,9.02823 1.76671,4.06404 4.60126,9.40811 6.29902,11.87571 3.20567,4.65928 14.65544,15.95147 22.16928,21.86416 4.1456,3.2622 4.03715,3.04239 -2.54918,-5.16657 -6.78177,-8.45256 -15.25873,-23.03488 -20.77665,-35.74059 -2.50547,-5.76918 -3.70133,-7.15503 -10.63615,-12.32587 -4.29731,-3.20422 -11.01036,-8.78585 -14.91788,-12.40362 -5.18675,-4.80213 -8.06922,-8.49337 -10.67809,-13.67413 -10.12802,-20.11247 -21.03439,-37.3209 -45.05952,-71.09638 -3.91225,-5.5 -8.85806,-12.475 -10.9907,-15.5 -2.13263,-3.025 -8.16161,-11.575 -13.39773,-19 -38.17514,-54.13368 -48.06075,-68.36455 -51.23113,-73.75 -1.3184,-2.23954 0.34391,-1.32478 4.65452,2.56136 7.27564,6.55922 77.76391,63.22555 89.22106,71.72585 2.19638,1.62953 7.6485,5.88779 12.11583,9.46279 9.16179,7.33177 10.71095,8.52352 36.39076,27.99512 10.175,7.71514 20.93669,15.90681 23.91487,18.2037 l 5.41487,4.17616 -3.41487,2.54362 c -6.85186,5.1037 -11.68726,10.59753 -12.76597,14.50431 -1.73535,6.2849 0.54271,13.71356 7.23008,23.57709 4.45068,6.56451 20.02873,23.45266 24.63125,26.70272 2.17874,1.5385 4.24468,3.69728 4.59098,4.79728 0.3463,1.1 3.7711,8.3 7.61066,16 7.63384,15.3092 13.63414,24.05493 22.29771,32.5 l 5.6423,5.5 -0.32594,-6.80541 c -0.37374,-7.80361 -1.16483,-8.29855 8.67406,5.42689 6.86639,9.57873 17.28013,22.74614 22.04835,27.87852 3.14014,3.37996 3.32582,4.06591 5.41367,20 1.1891,9.075 3.44402,24.15 5.01094,33.5 3.26339,19.47311 4.28155,26.50151 3.83832,26.49621 -0.1712,0 -2.55511,-2.8146 -5.29757,-6.25 z M 358.09167,794.10689 c -0.003,-0.6875 -1.11155,-2.6 -2.46404,-4.25 -2.13388,-2.60328 -2.46202,-2.73552 -2.48138,-1 -0.0437,3.91432 1.17639,6.5 3.06701,6.5 1.03586,0 1.88114,-0.5625 1.87841,-1.25 z m 7.56351,-52.51575 c -2.42723,-2.2244 -4.09032,-3.13892 -4.34094,-2.38707 -0.73575,2.20726 0.70237,4.21571 4.01706,5.61013 1.79593,0.75552 3.48881,1.15072 3.76194,0.87823 0.27314,-0.27248 -1.27399,-2.11807 -3.43806,-4.10129 z M 351.09663,623.36668 c 1.33251,-0.85244 1.33109,-1.26436 -0.0127,-3.68905 -0.832,-1.50121 -3.982,-4.03081 -7,-5.62134 -4.8599,-2.56125 -6.16399,-2.82344 -11.40626,-2.29331 -3.25545,0.32922 -6.18045,0.86747 -6.5,1.19613 -0.89106,0.91646 6.92205,7.41689 11.41899,9.5005 4.31707,2.00027 11.08075,2.45472 13.5,0.90707 z m 174,234.59002 c 0,-0.7701 1.98688,-13.70755 4.41528,-28.74997 2.4284,-15.04241 4.95049,-31.29166 5.60465,-36.10944 l 1.18938,-8.7596 8.01412,-9.7404 c 4.40776,-5.35722 10.06944,-12.6654 12.5815,-16.2404 2.51205,-3.575 6.57158,-9.2 9.02116,-12.5 l 4.45379,-6 -0.52478,6.75 c -0.28864,3.7125 -0.1672,6.75 0.26986,6.75 0.43706,0 4.36395,-3.81494 8.72641,-8.47765 6.30266,-6.73643 9.38081,-11.20364 14.98693,-21.75 3.88034,-7.29979 8.19623,-15.80671 9.59086,-18.90425 1.90217,-4.22482 5.07426,-8.09522 12.69641,-15.49143 12.09687,-11.73828 20.25687,-22.26593 23.56086,-30.39709 2.75251,-6.77397 3.05917,-11.83046 0.96327,-15.88348 -1.53689,-2.97202 -12.07393,-13.0961 -13.63028,-13.0961 -2.20735,0 -0.44258,-1.966 6.33058,-7.05243 42.56162,-31.96238 123.81918,-95.71533 143.25,-112.39091 10.30248,-8.84161 21.80552,-17.9631 21.39396,-16.96463 -0.44722,1.08496 -19.36113,28.81434 -27.9029,40.90797 -6.06565,8.58789 -33.53784,47.42287 -49.16487,69.5 -5.25569,7.425 -14.67914,21.20082 -20.941,30.61294 -10.59474,15.92483 -13.30793,20.48742 -23.0511,38.76353 -2.01625,3.78206 -5.61625,8.86648 -8,11.29872 -2.38375,2.43223 -8.95544,8.11282 -14.60375,12.62353 l -10.26967,8.20128 -6.8934,14 c -6.42028,13.03913 -11.45687,20.97977 -20.06727,31.63788 l -3.5,4.33237 6,-4.64328 c 11.37672,-8.80422 19.54121,-18.60379 25.86088,-31.03993 3.8851,-7.64528 4.66078,-8.50454 12.63912,-14.00099 4.675,-3.22071 9.24174,-6.28148 10.14831,-6.80171 1.12109,-0.64332 0.50864,1.27543 -1.91472,5.99873 -7.02345,13.68916 -5.12948,23.96796 6.60267,35.83343 7.30797,7.39101 12.10352,10.1835 17.48815,10.1835 4.85611,0 8.85563,-3.63474 14.28888,-12.98565 2.45487,-4.22496 5.76498,-9.21909 7.35581,-11.09805 l 2.89242,-3.4163 -2.07696,9 c -1.6192,7.01637 -2.15273,13.25233 -2.42071,28.29347 l -0.34374,19.29346 -6.26006,5.69434 c -3.44302,3.13189 -9.63505,8.86583 -13.76005,12.74211 -9.79324,9.20274 -23.40241,21.20195 -28.75,25.34889 l -4.25,3.29579 v -7.35567 c 0,-14.24061 -5.58797,-27.42432 -16.02695,-37.81239 -5.56884,-5.54169 -16.16752,-12.01613 -19.61302,-11.98107 -1.6934,0.0172 -24.99969,17.53906 -43.43953,32.65813 -10.8931,8.93139 -26.8385,25.80912 -40.22122,42.57294 -6.47628,8.11241 -11.98301,14.74991 -12.23717,14.74991 -0.25416,0 -0.46211,-0.63 -0.46211,-1.4001 z m 141.02475,-64.16491 c 0.53639,-1.41081 0.96206,-3.54831 0.94594,-4.75 -0.0269,-2.00153 -0.28338,-1.9055 -3.05669,1.14433 -2.41779,2.65885 -2.78995,3.61531 -1.84824,4.75 1.72399,2.07728 2.85886,1.74925 3.95899,-1.14433 z m -10.27475,-49.42394 c 1.93554,-1.18012 3.25,-2.79641 3.25,-3.99626 0,-1.10809 -0.31607,-2.0147 -0.70239,-2.0147 -0.98852,0 -7.29761,6.22139 -7.29761,7.19617 0,1.26331 1.2427,0.95323 4.75,-1.18521 z m 28.01761,-122.39078 c 4.30626,-2.22686 9.23239,-6.57428 9.23239,-8.1478 0,-1.90791 -7.78306,-2.88077 -12.5711,-1.57135 -5.5043,1.50531 -10.26226,4.63914 -11.64243,7.66829 -0.94895,2.08271 -0.89735,2.76071 0.27039,3.55279 1.95869,1.32858 11.02768,0.40265 14.71075,-1.50193 z M 509.83899,828.35689 c -0.57501,-1.44194 -4.14944,-34.59742 -7.22313,-67 -1.85628,-19.56887 -7.89499,-99.54659 -10.00331,-132.4858 -0.87959,-13.74219 -2.2793,-27.97573 -3.11047,-31.63009 -1.49763,-6.58459 -1.45714,-7.02049 4.50658,-48.5142 6.47388,-45.04318 10.34181,-73.07865 12.6059,-91.36991 2.56879,-20.75288 2.76196,-22.05345 3.20918,-21.60623 0.82081,0.82081 6.33648,39.00117 19.22901,133.10623 l 3.01403,22 -1.97327,8 c -1.08529,4.4 -1.97904,10.475 -1.9861,13.5 -0.0385,16.49866 -8.49075,128.49825 -13.05574,173 -4.17741,40.72336 -4.6304,44.46013 -5.21268,43 z M 462.2562,732.69327 c -6.05054,-9.26001 -12.35058,-18.63638 -14.00009,-20.83638 -2.13755,-2.85093 -3.41906,-6.22915 -4.46101,-11.75985 -1.26037,-6.69009 -2.01981,-8.3651 -5.50877,-12.15018 -6.16945,-6.69306 -13.14725,-16.53754 -13.79871,-19.46762 -0.32068,-1.44229 -2.09611,-8.72224 -3.9454,-16.17765 -4.26362,-17.18874 -7.1362,-32.88954 -12.88839,-70.4447 -4.41211,-28.806 -7.25707,-47.50598 -7.94455,-52.21974 -0.17805,-1.22085 0.007,-2.01508 0.41214,-1.76494 0.40474,0.25014 5.34086,7.6858 10.96917,16.52368 14.78771,23.2205 21.01416,30.82299 34.00604,41.5213 3.575,2.94388 8.01903,6.64417 9.87563,8.22287 l 3.37562,2.87037 -3.54841,4.64867 c -2.21801,2.90576 -4.02578,6.78177 -4.82163,10.33801 -1.19262,5.32919 -1.03316,6.8975 2.51904,24.77456 2.08573,10.49687 5.39964,26.28522 7.36422,35.08522 1.96458,8.8 3.6425,17.8 3.72871,20 0.13503,3.44567 2.33441,15.43858 9.06067,49.40644 0.80664,4.07353 1.27314,7.59991 1.03667,7.83638 -0.23647,0.23647 -5.3804,-7.14643 -11.43095,-16.40644 z m 83.30903,14.41362 c 0.95949,-4.26062 4.71809,-22.28437 7.9765,-38.25 1.79599,-8.8 2.93167,-16.45 2.52375,-17 -0.40792,-0.55 0.0764,-3.55665 1.07625,-6.68144 2.0843,-6.51387 12.69521,-56.75258 13.58008,-64.29659 0.75909,-6.47164 -0.80051,-12.09554 -5.14432,-18.55042 -1.91447,-2.84489 -3.48086,-5.30154 -3.48086,-5.45923 0,-0.15769 4.45454,-3.92895 9.89898,-8.38059 5.44444,-4.45164 12.40133,-10.85908 15.45976,-14.23876 5.92474,-6.54705 17.09064,-22.3479 26.74879,-37.85218 3.39029,-5.44244 5.89247,-8.61254 5.89247,-7.46536 0,1.09662 -1.09114,8.72826 -2.42475,16.95921 -1.33362,8.23095 -2.91792,18.56536 -3.52067,22.96536 -0.60275,4.4 -1.53226,10.7 -2.06558,14 -0.53333,3.3 -2.36096,14.775 -4.06142,25.5 -1.70046,10.725 -5.32142,28.95 -8.04659,40.5 -5.47225,23.19286 -6.99349,26.60762 -16.71556,37.52183 -4.94605,5.55254 -5.65186,6.91915 -6.85222,13.26733 -1.18789,6.28223 -2.47946,8.82573 -11.49843,22.64401 -9.79796,15.01181 -18.43489,27.06683 -19.39228,27.06683 -0.25333,0 -0.23259,-1.0125 0.0461,-2.25 z"
       id="path1" />
  </g>
</svg>
